<svg xmlns="http://www.w3.org/2000/svg" viewBox="0 0 659.87 660.41"><defs><style>.cls-1{fill:#7041ff;}</style></defs><g id="Layer_2" data-name="Layer 2"><g id="Layer_1-2" data-name="Layer 1"><path class="cls-1" d="M583.67,540.82a330.17,330.17,0,1,0-507,0l-.47.4c1.65,2,3.54,3.68,5.23,5.64,2.13,2.43,4.41,4.72,6.61,7.08,6.6,7.17,13.39,14,20.51,20.51,2.17,2,4.41,3.82,6.61,5.71,7.54,6.51,15.3,12.69,23.35,18.44,1,.71,2,1.63,3,2.36v-.28a327.83,327.83,0,0,0,377.33,0V601c1-.73,2-1.65,3-2.36q12-8.67,23.35-18.44c2.19-1.89,4.43-3.75,6.6-5.71,7.12-6.48,13.92-13.34,20.52-20.51,2.19-2.36,4.46-4.65,6.6-7.08,1.68-2,3.59-3.65,5.24-5.66ZM330.17,141.55a106.15,106.15,0,1,1-75,31.09,106.13,106.13,0,0,1,75-31.09ZM141.67,540.82A117.82,117.82,0,0,1,259.42,424.56h141.5A117.82,117.82,0,0,1,518.67,540.82a281.56,281.56,0,0,1-377,0Z"/></g></g></svg>